<svg id="Layer_1" data-name="Layer 1" xmlns="http://www.w3.org/2000/svg" viewBox="0 0 1101.16 740.95"><defs><style>.cls-1{fill:#0971b7;}.cls-2{fill:none;}.cls-3{fill:#fff;}</style></defs><title>bisa</title><ellipse class="cls-1" cx="542.58" cy="255.81" rx="184.14" ry="255.81"/><rect class="cls-2" x="525.1" y="141.87" width="34.96" height="309.32"/><path class="cls-3" d="M563.71,398c-29.33,53.61-46,40.7-37.39-7.47,10.31-57.48-20.72-246,15.2-245,17.21,15.16,30.19,19,37.4,7.47C550,229.12,551.16,312.19,563.71,398Z" transform="translate(-6.84 -11)"/><path class="cls-3" d="M637,156.51c-16.82,9.91-182.69,20-182.87,16.1s-9.12-28.52-2-43.78c7.89-16.9,136.19,26.18,182.86-16.1C682.32,69.89,653.85,146.6,637,156.51Z" transform="translate(-6.84 -11)"/><path class="cls-3" d="M491.74,350.91h0c-43.08,34.51-111.55-173.53-59.62-215.62h0c31.05-38.4,114.54,37.23,12.13,40.67C395.12,203.34,469.05,371.68,491.74,350.91Z" transform="translate(-6.84 -11)"/><polygon class="cls-1" points="33.69 740.95 33.69 603.98 0 603.98 0 585.09 84 585.09 84 603.98 50.15 603.98 50.15 740.95 33.69 740.95"/><path class="cls-1" d="M175.48,752l-36-74.49-9.4,15.11V752H113.65V596.09h16.46v72c2.17-4.25,4.53-8.67,7.32-13.69l34.16-58.27h19.93L151,662.43,194.63,752Z" transform="translate(-6.84 -11)"/><path class="cls-1" d="M332.41,752l-11.83-48.4h-37.7L271.55,752h-17l38.29-155.86h18.66L349.75,752ZM317.13,686l-10.54-43c-2.09-8.5-3.59-16.35-5-23.94-1.37,8-3,15.92-4.73,23.7L286.32,686Z" transform="translate(-6.84 -11)"/><polygon class="cls-1" points="369.4 740.95 369.4 585.09 385.86 585.09 385.86 722.05 433.19 722.05 433.19 740.95 369.4 740.95"/><rect class="cls-1" x="501.19" y="666.58" width="42.59" height="20.26"/><polygon class="cls-1" points="620.49 740.95 620.49 585.09 682.13 585.09 682.13 603.52 636.95 603.52 636.95 652.89 678.85 652.89 678.85 671.32 636.95 671.32 636.95 740.95 620.49 740.95"/><path class="cls-1" d="M776.41,752l-11.83-48.4H726.89L715.55,752h-17l38.28-155.86h18.66L793.76,752ZM761.14,686l-10.55-43c-2.08-8.5-3.58-16.35-5-23.94-1.36,8-3,15.92-4.73,23.7L730.33,686Z" transform="translate(-6.84 -11)"/><polygon class="cls-1" points="813.4 740.95 813.4 585.09 829.86 585.09 829.86 722.05 877.19 722.05 877.19 740.95 813.4 740.95"/><path class="cls-1" d="M979.85,752,968,703.55h-37.7L919,752H902l38.29-155.86H958.9L997.19,752ZM964.57,686,954,643c-2.09-8.5-3.59-16.35-5-23.94-1.37,8-3,15.92-4.74,23.7L933.76,686Z" transform="translate(-6.84 -11)"/><polygon class="cls-1" points="1084.87 740.95 1084.87 668.81 1033.3 668.81 1033.3 740.95 1016.84 740.95 1016.84 585.09 1033.3 585.09 1033.3 649.69 1084.87 649.69 1084.87 585.09 1101.16 585.09 1101.16 740.95 1084.87 740.95"/></svg>